<svg xmlns="http://www.w3.org/2000/svg" viewBox="0 0 800 600">
  <rect fill="#0a0a0a" width="800" height="600"/>
  <rect fill="#1a1a2e" x="240" y="20" width="280" height="560"/>
  <!-- Grid lines -->
  <g stroke="#2a2a4e" stroke-width="1">
    <line x1="240" y1="48" x2="520" y2="48"/>
    <line x1="240" y1="76" x2="520" y2="76"/>
    <line x1="240" y1="104" x2="520" y2="104"/>
    <line x1="240" y1="132" x2="520" y2="132"/>
    <line x1="240" y1="160" x2="520" y2="160"/>
    <line x1="240" y1="188" x2="520" y2="188"/>
    <line x1="240" y1="216" x2="520" y2="216"/>
    <line x1="240" y1="244" x2="520" y2="244"/>
    <line x1="240" y1="272" x2="520" y2="272"/>
    <line x1="240" y1="300" x2="520" y2="300"/>
    <line x1="240" y1="328" x2="520" y2="328"/>
    <line x1="240" y1="356" x2="520" y2="356"/>
    <line x1="240" y1="384" x2="520" y2="384"/>
    <line x1="240" y1="412" x2="520" y2="412"/>
    <line x1="240" y1="440" x2="520" y2="440"/>
    <line x1="240" y1="468" x2="520" y2="468"/>
    <line x1="240" y1="496" x2="520" y2="496"/>
    <line x1="240" y1="524" x2="520" y2="524"/>
    <line x1="240" y1="552" x2="520" y2="552"/>
    <line x1="268" y1="20" x2="268" y2="580"/>
    <line x1="296" y1="20" x2="296" y2="580"/>
    <line x1="324" y1="20" x2="324" y2="580"/>
    <line x1="352" y1="20" x2="352" y2="580"/>
    <line x1="380" y1="20" x2="380" y2="580"/>
    <line x1="408" y1="20" x2="408" y2="580"/>
    <line x1="436" y1="20" x2="436" y2="580"/>
    <line x1="464" y1="20" x2="464" y2="580"/>
    <line x1="492" y1="20" x2="492" y2="580"/>
  </g>
  <!-- I piece (cyan) -->
  <rect fill="#00f5ff" x="296" y="76" width="24" height="24"/>
  <rect fill="#00f5ff" x="320" y="76" width="24" height="24"/>
  <rect fill="#00f5ff" x="344" y="76" width="24" height="24"/>
  <rect fill="#00f5ff" x="368" y="76" width="24" height="24"/>
  <!-- J piece (blue) -->
  <rect fill="#0066ff" x="296" y="100" width="24" height="24"/>
  <rect fill="#0066ff" x="320" y="100" width="24" height="24"/>
  <rect fill="#0066ff" x="344" y="100" width="24" height="24"/>
  <rect fill="#0066ff" x="344" y="124" width="24" height="24"/>
  <!-- L piece (orange) -->
  <rect fill="#ff9900" x="320" y="148" width="24" height="24"/>
  <rect fill="#ff9900" x="320" y="172" width="24" height="24"/>
  <rect fill="#ff9900" x="320" y="196" width="24" height="24"/>
  <rect fill="#ff9900" x="344" y="196" width="24" height="24"/>
  <!-- O piece (yellow) -->
  <rect fill="#ffdd00" x="296" y="220" width="24" height="24"/>
  <rect fill="#ffdd00" x="320" y="220" width="24" height="24"/>
  <rect fill="#ffdd00" x="296" y="244" width="24" height="24"/>
  <rect fill="#ffdd00" x="320" y="244" width="24" height="24"/>
  <!-- T piece (purple) -->
  <rect fill="#cc00ff" x="344" y="268" width="24" height="24"/>
  <rect fill="#cc00ff" x="368" y="268" width="24" height="24"/>
  <rect fill="#cc00ff" x="392" y="268" width="24" height="24"/>
  <rect fill="#cc00ff" x="368" y="292" width="24" height="24"/>
  <!-- Side panel -->
  <text x="540" y="50" fill="#00ff88" font-family="monospace" font-size="16">SCORE</text>
  <text x="540" y="80" fill="#ffffff" font-family="monospace" font-size="14">000000</text>
  <text x="540" y="120" fill="#00ff88" font-family="monospace" font-size="16">LEVEL</text>
  <text x="540" y="150" fill="#ffffff" font-family="monospace" font-size="14">01</text>
  <text x="540" y="190" fill="#00ff88" font-family="monospace" font-size="16">LINES</text>
  <text x="540" y="220" fill="#ffffff" font-family="monospace" font-size="14">000</text>
  <text x="540" y="260" fill="#00ff88" font-family="monospace" font-size="16">NEXT</text>
  <!-- Next piece preview box -->
  <rect fill="#1a1a2e" stroke="#00ff88" x="540" y="280" width="100" height="80" stroke-width="2"/>
  <!-- S piece (green) in next box -->
  <rect fill="#00ff66" x="564" y="304" width="24" height="24"/>
  <rect fill="#00ff66" x="588" y="304" width="24" height="24"/>
  <rect fill="#00ff66" x="588" y="328" width="24" height="24"/>
  <rect fill="#00ff66" x="612" y="328" width="24" height="24"/>
</svg>